<svg width="26" height="26" viewBox="0 0 26 26" fill="none" xmlns="http://www.w3.org/2000/svg">
<g clip-path="url(#clip0_45_531)">
<path d="M17.2051 12.5161C17.2051 13.5107 16.81 14.4645 16.1067 15.1678C15.4035 15.871 14.4496 16.2661 13.4551 16.2661C12.4605 16.2661 11.5067 15.871 10.8034 15.1678C10.1002 14.4645 9.70507 13.5107 9.70507 12.5161C9.70507 12.3024 9.72757 12.0936 9.76632 11.8911H8.45507V16.8874C8.45507 17.2349 8.73632 17.5161 9.08382 17.5161H17.8276C17.9941 17.5158 18.1537 17.4494 18.2713 17.3315C18.389 17.2136 18.4551 17.0539 18.4551 16.8874V11.8911H17.1438C17.1826 12.0936 17.2051 12.3024 17.2051 12.5161ZM13.4551 15.0161C13.7835 15.016 14.1086 14.9513 14.412 14.8255C14.7153 14.6998 14.9909 14.5155 15.2231 14.2833C15.4552 14.051 15.6394 13.7753 15.765 13.4719C15.8905 13.1684 15.9551 12.8433 15.9551 12.5149C15.955 12.1865 15.8902 11.8613 15.7645 11.558C15.6387 11.2546 15.4545 10.979 15.2222 10.7468C14.9899 10.5147 14.7142 10.3306 14.4108 10.205C14.1074 10.0794 13.7822 10.0148 13.4538 10.0149C12.7906 10.015 12.1546 10.2786 11.6858 10.7477C11.217 11.2168 10.9537 11.8529 10.9538 12.5161C10.954 13.1793 11.2176 13.8153 11.6867 14.2841C12.1557 14.753 12.7919 15.0163 13.4551 15.0161ZM16.4551 9.89111H17.9538C18.0534 9.89111 18.1489 9.85164 18.2194 9.78135C18.2899 9.71106 18.3297 9.61568 18.3301 9.51611V8.01736C18.3301 7.91758 18.2904 7.82187 18.2199 7.75131C18.1493 7.68075 18.0536 7.64111 17.9538 7.64111H16.4551C16.3553 7.64111 16.2596 7.68075 16.189 7.75131C16.1185 7.82187 16.0788 7.91758 16.0788 8.01736V9.51611C16.0801 9.72236 16.2488 9.89111 16.4551 9.89111ZM13.4551 0.516113C10.2725 0.516113 7.22023 1.7804 4.96979 4.03083C2.71936 6.28127 1.45508 9.33352 1.45508 12.5161C1.45508 15.6987 2.71936 18.751 4.96979 21.0014C7.22023 23.2518 10.2725 24.5161 13.4551 24.5161C15.0309 24.5161 16.5914 24.2057 18.0473 23.6027C19.5032 22.9996 20.826 22.1157 21.9403 21.0014C23.0546 19.8871 23.9386 18.5642 24.5416 17.1083C25.1447 15.6524 25.4551 14.092 25.4551 12.5161C25.4551 10.9403 25.1447 9.37982 24.5416 7.92391C23.9386 6.46801 23.0546 5.14513 21.9403 4.03083C20.826 2.91653 19.5032 2.03262 18.0473 1.42956C16.5914 0.826503 15.0309 0.516113 13.4551 0.516113ZM19.7051 17.3774C19.7051 18.1411 19.0801 18.7661 18.3163 18.7661H8.59382C7.83007 18.7661 7.20507 18.1411 7.20507 17.3774V7.65486C7.20507 6.89111 7.83007 6.26611 8.59382 6.26611H18.3163C19.0801 6.26611 19.7051 6.89111 19.7051 7.65486V17.3774Z" fill="#FFA801"/>
</g>
<defs>
<clipPath id="clip0_45_531">
<rect width="25" height="25" fill="white" transform="translate(0.955078 0.0151367)"/>
</clipPath>
</defs>
</svg>
