<svg width="285" height="225" viewBox="0 0 285 225" fill="none" xmlns="http://www.w3.org/2000/svg">
<mask id="mask0_20_367" style="mask-type:alpha" maskUnits="userSpaceOnUse" x="0" y="0" width="285" height="225">
<rect width="285" height="225" rx="8.35294" fill="white"/>
</mask>
<g mask="url(#mask0_20_367)">
<path d="M0 5.85293C0 1.23972 3.73974 -2.5 8.35294 -2.5H276.647C281.26 -2.5 285 1.23974 285 5.85294V172.064C285 176.511 281.515 180.178 277.074 180.406L8.7798 194.134C4.00517 194.378 0 190.573 0 185.792V5.85293Z" fill="white"/>
<path d="M0 194.408C0 190.84 2.26636 187.666 5.64111 186.507L273.935 94.4156C279.357 92.5545 285 96.5835 285 102.316V216.647C285 221.26 281.26 225 276.647 225H8.35294C3.73974 225 0 221.26 0 216.647V194.408Z" fill="#FFA801"/>
</g>
</svg>
