<svg width="18" height="18" viewBox="0 0 18 18" fill="none" xmlns="http://www.w3.org/2000/svg">
<path d="M15.3655 12.8552L12.3167 10.0832C12.1726 9.95219 11.9832 9.88234 11.7886 9.88835C11.5939 9.89437 11.4092 9.97579 11.2735 10.1154L9.47871 11.9612C9.04671 11.8787 8.17821 11.6079 7.28421 10.7162C6.39021 9.82143 6.11946 8.95068 6.03921 8.52168L7.88346 6.72618C8.02327 6.59053 8.10481 6.4058 8.11083 6.21108C8.11685 6.01637 8.04688 5.82696 7.91571 5.68293L5.14446 2.63493C5.01324 2.49045 4.83087 2.40281 4.63608 2.39062C4.44128 2.37844 4.24941 2.44267 4.10121 2.56968L2.47371 3.96543C2.34404 4.09557 2.26665 4.26877 2.25621 4.45218C2.24496 4.63968 2.03046 9.08118 5.47446 12.5267C8.47896 15.5304 12.2425 15.7502 13.279 15.7502C13.4305 15.7502 13.5235 15.7457 13.5482 15.7442C13.7316 15.7339 13.9047 15.6562 14.0342 15.5259L15.4292 13.8977C15.5567 13.75 15.6214 13.5582 15.6095 13.3635C15.5976 13.1687 15.51 12.9863 15.3655 12.8552Z" fill="#FFA801"/>
</svg>
