<svg width="26" height="26" viewBox="0 0 26 26" fill="none" xmlns="http://www.w3.org/2000/svg">
<g clip-path="url(#clip0_45_536)">
<path d="M15.0399 12.3074L12.2324 10.9974C11.9874 10.8836 11.7861 11.0111 11.7861 11.2824V13.7499C11.7861 14.0211 11.9874 14.1486 12.2324 14.0349L15.0386 12.7249C15.2849 12.6099 15.2849 12.4224 15.0399 12.3074ZM13.0361 0.516113C6.40863 0.516113 1.03613 5.88861 1.03613 12.5161C1.03613 19.1436 6.40863 24.5161 13.0361 24.5161C19.6636 24.5161 25.0361 19.1436 25.0361 12.5161C25.0361 5.88861 19.6636 0.516113 13.0361 0.516113ZM13.0361 17.3911C6.89363 17.3911 6.78613 16.8374 6.78613 12.5161C6.78613 8.19486 6.89363 7.64111 13.0361 7.64111C19.1786 7.64111 19.2861 8.19486 19.2861 12.5161C19.2861 16.8374 19.1786 17.3911 13.0361 17.3911Z" fill="#FFA801"/>
</g>
<defs>
<clipPath id="clip0_45_536">
<rect width="25" height="25" fill="white" transform="translate(0.535156 0.0151367)"/>
</clipPath>
</defs>
</svg>
