<svg width="26" height="26" viewBox="0 0 26 26" fill="none" xmlns="http://www.w3.org/2000/svg">
<g clip-path="url(#clip0_45_529)">
<path d="M13.166 0.516113C6.53852 0.516113 1.16602 5.88861 1.16602 12.5161C1.16602 19.1436 6.53852 24.5161 13.166 24.5161C19.7935 24.5161 25.166 19.1436 25.166 12.5161C25.166 5.88861 19.7935 0.516113 13.166 0.516113ZM17.781 14.0549C17.781 14.0549 18.8423 15.1024 19.1035 15.5886C19.111 15.5986 19.1148 15.6086 19.1173 15.6136C19.2235 15.7924 19.2485 15.9311 19.196 16.0349C19.1085 16.2074 18.8085 16.2924 18.706 16.2999H16.831C16.701 16.2999 16.4285 16.2661 16.0985 16.0386C15.8448 15.8611 15.5948 15.5699 15.351 15.2861C14.9873 14.8636 14.6723 14.4986 14.3548 14.4986C14.3144 14.4985 14.2744 14.5049 14.236 14.5174C13.996 14.5949 13.6885 14.9374 13.6885 15.8499C13.6885 16.1349 13.4635 16.2986 13.3048 16.2986H12.446C12.1535 16.2986 10.6298 16.1961 9.27977 14.7724C7.62726 13.0286 6.13977 9.53111 6.12727 9.49861C6.03352 9.27236 6.22727 9.15111 6.43852 9.15111H8.33227C8.58477 9.15111 8.66727 9.30486 8.72477 9.44111C8.79227 9.59986 9.03977 10.2311 9.44602 10.9411C10.1048 12.0986 10.5085 12.5686 10.8323 12.5686C10.893 12.5679 10.9526 12.5525 11.006 12.5236C11.4285 12.2886 11.3498 10.7824 11.331 10.4699C11.331 10.4111 11.3298 9.79611 11.1135 9.50111C10.9585 9.28736 10.6948 9.20611 10.5348 9.17611C10.5995 9.08675 10.6848 9.01429 10.7835 8.96486C11.0735 8.81986 11.596 8.79861 12.1148 8.79861H12.4035C12.966 8.80611 13.111 8.84236 13.3148 8.89361C13.7273 8.99236 13.736 9.25861 13.6998 10.1699C13.6885 10.4286 13.6773 10.7211 13.6773 11.0661C13.6773 11.1411 13.6735 11.2211 13.6735 11.3061C13.661 11.7699 13.646 12.2961 13.9735 12.5124C14.0162 12.5391 14.0656 12.5534 14.116 12.5536C14.2298 12.5536 14.5723 12.5536 15.4998 10.9624C15.7858 10.4502 16.0344 9.91796 16.2435 9.36986C16.2623 9.33736 16.3173 9.23736 16.3823 9.19861C16.4302 9.17416 16.4834 9.16172 16.5373 9.16236H18.7635C19.006 9.16236 19.1723 9.19861 19.2035 9.29236C19.2585 9.44111 19.1935 9.89486 18.1773 11.2711L17.7235 11.8699C16.8023 13.0774 16.8023 13.1386 17.781 14.0549Z" fill="#FFA801"/>
</g>
<defs>
<clipPath id="clip0_45_529">
<rect width="25" height="25" fill="white" transform="translate(0.665039 0.0151367)"/>
</clipPath>
</defs>
</svg>
